<?xml version="1.0" encoding="UTF-8" standalone="no"?>
<!-- Created with Inkscape (http://www.inkscape.org/) -->

<svg
   width="210mm"
   height="297mm"
   viewBox="0 0 210 297"
   version="1.1"
   id="svg5"
   xml:space="preserve"
   xmlns="http://www.w3.org/2000/svg"
   xmlns:svg="http://www.w3.org/2000/svg"><defs
     id="defs2" /><g
     id="layer1"><g
       id="g6965"
       transform="translate(176.6962,-36.438169)"><path
         style="fill:#000000;stroke-width:0.264583"
         d="m -76.730069,67.026798 c -1.00747,-0.42361 -1.14551,-0.7938 -1.14551,-3.07192 0,-2.09279 0.3717,-3.17493 1.55248,-4.51976 1.28623,-1.46495 3.07273,-2.1029 5.85204,-2.08972 4.98068,0.0236 7.65202,2.20678 8.11454,6.63167 0.25876,2.47587 -0.89146,3.79173 -2.8116,3.21644 -1.17806,-0.35295 -1.5621,-1.02942 -1.65611,-2.91712 -0.10027,-2.0133 -0.8314,-2.54033 -3.52411,-2.54033 -1.75242,0 -2.03087,0.0719 -2.64084,0.68187 -0.52419,0.52419 -0.71741,1.04423 -0.8356,2.24895 -0.0846,0.8619 -0.26361,1.70669 -0.39786,1.87729 -0.48027,0.61035 -1.66248,0.8379 -2.50743,0.48263 z"
         id="path4437" /><path
         style="fill:#000000;stroke-width:0.264583"
         d="m -65.594346,86.56459 c -0.99277,-1.196213 -1.79779,-2.680854 -1.68582,-3.109029 0.2122,-0.811443 2.19033,-2.879828 2.75416,-2.879828 1.16655,0 4.49728,4.38346 4.10583,5.403548 -0.29589,0.771012 -4.6146,1.259552 -5.17417,0.585309 z"
         id="path4427" /><path
         style="fill:#000000;stroke-width:0.264583"
         d="m -71.552099,94.330008 c -2.32426,-0.752475 -3.64058,-2.886459 -3.42016,-5.54463 0.19563,-2.358995 2.26182,-4.367784 4.51107,-4.385746 0.63846,-0.0051 0.7276,0.09463 0.7276,0.814099 0,1.966116 1.45116,3.404158 3.70417,3.670652 l 1.19062,0.140829 -0.0456,1.287907 c -0.1062,3.002442 -3.49509,5.044027 -6.66774,4.016889 z"
         id="path4411" /><path
         style="fill:#000000;stroke-width:0.264583"
         d="m -73.408971,97.809303 c -2.574962,-1.069441 -4.536831,-3.385438 -5.472038,-5.980655 -0.71536,-1.987987 -0.230336,-4.177418 0.482485,-6.092824 0.889121,-1.95494 2.512007,-3.576726 4.42869,-4.53276 1.523845,-0.610062 3.204493,-0.684557 4.865411,-0.7188 0.51797,-0.01068 1.085129,0.07266 1.170543,0.207226 -0.174278,0.93899 -0.252471,0.919872 -0.562131,1.807994 -0.190602,0.538236 -0.552524,1.288675 -0.749524,1.568686 -0.554681,-0.145677 -0.02944,-0.04755 -0.789042,-0.179043 -1.267072,0.0557 -2.5173,0.553737 -3.546599,1.283259 -1.129869,0.834534 -1.844286,2.174514 -1.829497,3.587735 -0.161869,1.932829 0.598551,3.976222 2.229357,5.100023 2.342671,1.781718 6.093567,1.248267 7.779039,-1.191496 0.85193,-1.016041 1.044419,-2.840232 1.030599,-3.673146 -0.03469,-0.43611 -0.115823,-0.343855 0.04452,-0.596554 1.185962,-0.02934 2.536417,-0.523712 3.571069,0.06472 0.481572,0.273882 0.105767,0.863313 -6.62e-4,1.5913 -0.236988,1.621026 -0.506366,3.338276 -1.64208,4.587704 -1.436962,1.702274 -3.30479,3.250182 -5.582675,3.558303 -1.799476,0.282329 -3.701978,0.232382 -5.427461,-0.391674 z"
         id="path4407" /><path
         style="fill:#000000;stroke-width:0.264583"
         d="m -72.349374,102.11509 c -4.53659,-0.91059 -8.355059,-4.027175 -9.936999,-8.110474 -0.82429,-2.127652 -1.00922,-6.032045 -0.3877,-8.185459 1.3482,-4.67116 5.210549,-8.139231 10.145919,-9.110204 1.66706,-0.327975 5.51122,-0.190191 5.90357,0.2116 0.10594,0.108479 -0.23381,0.881846 -0.75502,1.71859 l -0.9476,1.521354 h -1.93501 c -3.71612,0 -6.70544,1.87038 -8.35964,5.230522 -0.79013,1.604983 -0.871269,1.992098 -0.871269,4.156622 0,2.21144 0.0659,2.508359 0.897049,4.041013 1.09244,2.014484 2.74422,3.58562 4.74516,4.513418 1.25278,0.580898 1.87412,0.695714 3.7505,0.693018 3.06048,-0.0044 4.90058,-0.735332 6.8889,-2.736477 1.73649,-1.747681 2.64639,-3.551973 2.83387,-5.619453 l 0.13624,-1.502463 1.48664,-0.10441 c 0.81764,-0.05743 1.59184,-0.05068 1.72042,0.015 0.12859,0.06567 0.16677,1.005623 0.0849,2.08878 -0.29459,3.895283 -3.25221,8.218233 -6.80554,9.947243 -2.58678,1.25869 -6.01345,1.74982 -8.59435,1.23179 z"
         id="path4401" /><path
         style="fill:#000000;stroke-width:0.264583"
         d="m -76.565015,108.58074 c -5.262429,-0.50611 -11.706889,-1.98284 -15.670369,-3.59082 -4.30805,-1.74776 -11.678156,-5.783408 -14.660476,-8.027625 -2.16435,-1.628685 -7.99121,-6.83477 -8.16936,-7.299018 -0.33203,-0.865275 -0.1331,-1.259591 1.48863,-2.950713 4.03463,-4.207263 11.58303,-9.317182 17.931486,-12.138791 9.04624,-4.020659 20.795749,-5.901851 30.365389,-4.861761 8.28241,0.900189 17.54166,4.167907 24.66197,8.70354 6.06663,3.864443 12.43541,9.266128 12.43541,10.54709 0,0.75837 -1.95098,2.858436 -5.15836,5.552519 -7.16455,6.017979 -17.49412,11.159899 -26.06247,12.973589 -5.00491,1.05939 -12.52529,1.53791 -17.16185,1.09199 z m 10.01064,-4.49606 c 5.86015,-0.61712 13.09746,-2.63426 17.92936,-4.997165 4.84928,-2.371415 11.6791,-6.889898 13.8281,-9.148407 l 0.92604,-0.973236 -1.19062,-1.075396 c -4.5148,-4.077864 -12.74456,-8.908068 -18.99388,-11.147879 -6.41665,-2.29978 -14.74944,-3.407146 -21.22279,-2.82035 -9.875789,0.895223 -19.646299,4.354973 -27.516655,9.743685 -2.80025,1.917288 -6.61458,5.004459 -6.61458,5.353585 0,0.382809 2.78485,2.661277 6.02427,4.928835 5.386746,3.77067 11.041286,6.550778 16.572926,8.148248 6.937369,2.00342 13.756889,2.67268 20.257829,1.98808 z"
         id="path4395" /><path
         style="fill:#000000;stroke-width:0.264583"
         d="m -134.77047,196.9643 c -0.5333,-0.26588 -0.6403,-0.5156 -0.6403,-1.49424 0,-1.72233 0.38468,-1.84348 5.86797,-1.84819 l 4.54505,-0.004 0.50962,-1.38906 c 0.2803,-0.76399 1.01077,-2.823 1.62328,-4.57558 0.61251,-1.75259 1.21188,-3.34544 1.33194,-3.5397 0.14057,-0.22746 3.35292,-0.88669 9.02343,-1.85176 6.20685,-1.05635 8.87078,-1.61237 9.02756,-1.88426 0.21261,-0.36867 1.81955,-9.61134 4.345137,-24.99193 0.64517,-3.92906 1.53765,-9.22734 1.98326,-11.77396 0.44563,-2.54661 1.16452,-6.71652 1.59755,-9.26646 l 0.78732,-4.63626 -2.93146,-8.55296 c -1.6123,-4.70413 -3.107007,-8.89245 -3.321577,-9.30737 -0.47226,-0.91325 -0.50274,-1.88516 -0.0726,-2.31528 0.57774,-0.57774 1.572177,-0.33165 3.489877,0.8636 2.51772,1.56922 7.0093,3.67034 9.87833,4.62098 7.717979,2.55733 17.951729,3.11939 26.266369,1.44262 4.62452,-0.9326 11.83047,-3.8157 15.49657,-6.20017 1.85131,-1.20411 2.82715,-1.32675 3.41524,-0.42919 0.36973,0.56424 0.35036,0.74546 -0.23307,2.18281 -0.97473,2.40133 -4.90244,13.47963 -5.59827,15.79013 l -0.61793,2.05182 1.29987,7.60547 c 0.7149,4.18301 2.62514,15.52313 4.24497,25.20026 1.61983,9.67714 3.08264,17.7369 3.25065,17.91057 0.16803,0.17367 1.4366,0.50123 2.81905,0.72787 11.61513,1.90437 14.69607,2.51957 15.09869,3.01503 0.22786,0.28041 0.99144,2.1013 1.69685,4.04641 0.7054,1.94511 1.43563,3.92353 1.62272,4.39647 l 0.34014,0.8599 h 4.61442 c 4.0901896,0 4.6828296,0.0554 5.2169696,0.48794 0.71583,0.57963 0.81497,1.97067 0.18534,2.6003 -0.37708,0.37711 -6.4329196,0.42492 -62.9699296,0.49726 -48.443566,0.062 -62.697136,0.008 -63.193016,-0.23918 z m 28.9547,-3.64654 c 0.48392,-0.66101 1.65939,-8.10644 1.33159,-8.43423 -0.27226,-0.27226 -12.86249,1.60695 -13.99326,2.08862 -0.37472,0.1596 -0.78014,0.99256 -1.38906,2.85388 -0.97908,2.9928 -1.05519,3.71654 -0.40366,3.8387 0.25093,0.047 3.53457,0.0855 7.29699,0.0855 6.02568,0 6.87849,-0.0515 7.1574,-0.43251 z m 50.408136,0.3267 c 0.30536,-0.19344 0.25186,-1.30495 -0.33406,-6.94126 -0.3837,-3.69105 -0.93443,-9.33035 -1.22383,-12.53181 -0.61746,-6.83033 -2.80082,-27.24712 -3.09827,-28.97187 l -0.20532,-1.19063 -11.49328,-0.069 c -6.32132,-0.038 -11.591369,0.0291 -11.711229,0.14893 -0.11986,0.11986 -0.44832,2.29403 -0.7299,4.8315 -1.44439,13.01607 -2.19144,20.08074 -2.79426,26.42473 -0.58014,6.10539 -1.4295,13.91481 -1.85147,17.0234 -0.11631,0.85682 -0.0502,1.03346 0.46393,1.23999 0.76995,0.3093 32.491579,0.34393 32.977689,0.036 z m 13.06939,-0.0923 c 0.40439,-0.30592 0.38812,-0.6186 -0.21672,-4.16719 -0.35965,-2.11005 -1.72678,-10.3849 -3.03808,-18.38854 -2.59493,-15.83828 -3.58291,-21.72241 -5.56895,-33.1667 -0.71604,-4.12617 -1.30191,-7.76055 -1.30191,-8.07641 0,-0.31585 0.89297,-3.24724 1.98438,-6.51418 1.90322,-5.69696 2.25819,-7.14375 1.7527,-7.14375 -0.12739,0 -0.8841,0.28855 -1.68156,0.64122 -0.79745,0.35267 -3.02469,1.14229 -4.94942,1.7547 -2.22272,0.70724 -3.55947,1.26968 -3.6639,1.54159 -0.0904,0.23546 0.3461,5.07155 0.97004,10.74686 2.72039,24.74445 4.48461,41.56308 5.71736,54.50417 0.37427,3.92906 0.73784,7.40846 0.8079,7.73199 0.12364,0.57098 0.24199,0.59066 4.02672,0.66911 2.14463,0.0445 4.08493,0.10718 4.31178,0.13936 0.22683,0.0322 0.60918,-0.0903 0.84966,-0.27223 z m 19.15567,-0.0662 c 0.55936,-0.40899 -1.40536,-6.45062 -2.15643,-6.63119 -1.52815,-0.36738 -13.54656,-2.1313 -13.82959,-2.02973 -0.45302,0.16256 -0.4182,0.93924 0.20905,4.66288 0.66411,3.94253 0.70088,4.06602 1.2586,4.22434 0.8764,0.24882 14.15161,0.0419 14.51837,-0.2263 z m -69.045279,-2.38114 c 0.17623,-1.30969 0.62581,-5.41734 0.99906,-9.12812 0.70998,-7.0584 1.38573,-13.43305 3.59005,-33.86667 1.91376,-17.74024 2.8882,-26.49637 3.03278,-27.25208 0.0696,-0.3638 0.0309,-0.80958 -0.0861,-0.99061 -0.11694,-0.18103 -1.39665,-0.68466 -2.84381,-1.11916 -1.44715,-0.43451 -3.56151,-1.14959 -4.69856,-1.58908 -2.10893,-0.81513 -3.09201,-0.99138 -3.09201,-0.55437 0,0.13459 0.89297,2.97764 1.98438,6.3179 1.09141,3.34026 1.98437,6.49121 1.98437,7.00212 0,0.5109 -0.17544,1.86479 -0.38986,3.00866 -0.40101,2.13919 -3.55042,20.7237 -7.29767,43.06312 -1.169177,6.97013 -2.299027,13.49658 -2.510787,14.50324 -0.21175,1.00663 -0.38501,2.12288 -0.38501,2.48055 v 0.65024 l 4.696357,-0.0722 4.69635,-0.0723 z m 31.129409,-51.00588 c 0.42267,-0.30906 0.43799,-0.58771 0.17835,-3.24114 -0.96612,-9.87284 -1.69637,-15.90923 -1.95834,-16.18802 -0.22434,-0.23875 -0.73945,-0.25637 -2.02088,-0.0691 -3.43242,0.50158 -9.2469,0.57725 -12.56771,0.16355 -3.73095,-0.46479 -3.67687,-0.49251 -3.921259,2.00991 -0.0889,0.91061 -0.52774,5.10656 -0.97512,9.32435 -0.76771,7.23781 -0.78768,7.68751 -0.35534,8.00364 0.66738,0.48801 20.952649,0.48502 21.620299,-0.003 z"
         id="path3799" /></g></g></svg>
